<mxfile host="app.diagrams.net" modified="2023-11-01T01:50:11.731Z" agent="Mozilla/5.0 (X11; CrOS x86_64 14541.0.0) AppleWebKit/537.36 (KHTML, like Gecko) Chrome/118.0.0.0 Safari/537.36" version="21.8.2" etag="Fm_4P2YtKmJWnYlBO58X" type="github">
  <diagram name="Page-1" id="9ssk9m8-Xu_CT9n4iCrH">
    <mxGraphModel>
      <root>
        <mxCell id="0" />
        <mxCell id="1" parent="0" />
      </root>
    </mxGraphModel>
  </diagram>
</mxfile>
